<svg xmlns="http://www.w3.org/2000/svg" width="16" height="16" viewBox="0 0 16 16"><path d="M4.667,0h-2A2.667,2.667,0,0,0,0,2.667v2A2.667,2.667,0,0,0,2.667,7.333h2A2.667,2.667,0,0,0,7.333,4.667v-2A2.667,2.667,0,0,0,4.667,0ZM6,4.667A1.333,1.333,0,0,1,4.667,6h-2A1.333,1.333,0,0,1,1.333,4.667v-2A1.333,1.333,0,0,1,2.667,1.333h2A1.333,1.333,0,0,1,6,2.667Z"/><path d="M17.667,0h-2A2.667,2.667,0,0,0,13,2.667v2a2.667,2.667,0,0,0,2.667,2.667h2a2.667,2.667,0,0,0,2.667-2.667v-2A2.667,2.667,0,0,0,17.667,0ZM19,4.667A1.333,1.333,0,0,1,17.667,6h-2a1.333,1.333,0,0,1-1.333-1.333v-2a1.333,1.333,0,0,1,1.333-1.333h2A1.333,1.333,0,0,1,19,2.667Z" transform="translate(-4.333)"/><path d="M4.667,13h-2A2.667,2.667,0,0,0,0,15.667v2a2.667,2.667,0,0,0,2.667,2.667h2a2.667,2.667,0,0,0,2.667-2.667v-2A2.667,2.667,0,0,0,4.667,13ZM6,17.667A1.333,1.333,0,0,1,4.667,19h-2a1.333,1.333,0,0,1-1.333-1.333v-2a1.333,1.333,0,0,1,1.333-1.333h2A1.333,1.333,0,0,1,6,15.667Z" transform="translate(0 -4.333)"/><path d="M17.667,13h-2A2.667,2.667,0,0,0,13,15.667v2a2.667,2.667,0,0,0,2.667,2.667h2a2.667,2.667,0,0,0,2.667-2.667v-2A2.667,2.667,0,0,0,17.667,13ZM19,17.667A1.333,1.333,0,0,1,17.667,19h-2a1.333,1.333,0,0,1-1.333-1.333v-2a1.333,1.333,0,0,1,1.333-1.333h2A1.333,1.333,0,0,1,19,15.667Z" transform="translate(-4.333 -4.333)"/></svg>