<svg xmlns="http://www.w3.org/2000/svg" xmlns:xlink="http://www.w3.org/1999/xlink" width="50.63" height="45" preserveAspectRatio="xMidYMid meet" viewBox="0 0 576 512" style="-ms-transform: rotate(360deg); -webkit-transform: rotate(360deg); transform: rotate(360deg);"><path fill="#333" d="M384 160c-17.7 0-32-14.3-32-32s14.3-32 32-32h160c17.7 0 32 14.3 32 32v160c0 17.7-14.3 32-32 32s-32-14.3-32-32v-82.7L342.6 374.6c-12.5 12.5-32.8 12.5-45.3 0L192 269.3L54.6 406.6c-12.5 12.5-32.8 12.5-45.3 0s-12.5-32.8 0-45.3l160-160c12.5-12.5 32.8-12.5 45.3 0L320 306.7L466.7 160H384z"/></svg>