<svg xmlns="http://www.w3.org/2000/svg" width="17.455" height="16" viewBox="0 0 17.455 16"><path d="M13.818,1H3.636A3.641,3.641,0,0,0,0,4.636v8.727A3.641,3.641,0,0,0,3.636,17H13.818a3.641,3.641,0,0,0,3.636-3.636V4.636A3.641,3.641,0,0,0,13.818,1ZM3.636,2.455H13.818A2.182,2.182,0,0,1,15.84,3.827L10.271,9.4a2.187,2.187,0,0,1-3.087,0L1.615,3.827A2.182,2.182,0,0,1,3.636,2.455ZM13.818,15.545H3.636a2.182,2.182,0,0,1-2.182-2.182V5.727l4.7,4.7a3.641,3.641,0,0,0,5.143,0l4.7-4.7v7.636A2.182,2.182,0,0,1,13.818,15.545Z" transform="translate(0 -1)"/></svg>