<svg xmlns="http://www.w3.org/2000/svg" width="16" height="16" viewBox="0 0 16 16"><path d="M15.414,6.057,10.357,1A3.337,3.337,0,0,0,5.643,1L.586,6.057A1.987,1.987,0,0,0,0,7.472V14.02a2,2,0,0,0,2,2H14a2,2,0,0,0,2-2V7.472A1.987,1.987,0,0,0,15.414,6.057ZM10,14.687H6V12.063a2,2,0,1,1,4,0Zm4.667-.667a.667.667,0,0,1-.667.667H11.333V12.063a3.333,3.333,0,1,0-6.667,0v2.624H2a.667.667,0,0,1-.667-.667V7.472A.673.673,0,0,1,1.529,7L6.585,1.942a2,2,0,0,1,2.829,0L14.471,7a.673.673,0,0,1,.2.47Z" transform="translate(0 -0.021)"/></svg>