<svg xmlns="http://www.w3.org/2000/svg" width="564.02" height="205.82" viewBox="0 0 564.02 205.82"><path d="M0,0H4.41V205.82H0Z" transform="translate(189.83)" fill="#2c8c2d"/><path d="M71.63,47.86,33.14,109.64l16.09,25.82,54.57-87.6Z" fill="#98bf00"/><path d="M119.25,37.4h32.12L69.76,168.41,53.7,142.63Z" fill="#98bf00"/><path d="M69.2,103.4,49.23,135.46,33.14,109.64,69.2,51.75Z" fill="#2c8c2d"/><path d="M69.2,167.53l-15.5-24.9,15.5-24.89Z" fill="#2c8c2d"/><path d="M25.32,56.44,12.66,76.77l16.01,25.7L57.35,56.44Z" fill="#2c8c2d"/><path d="M0,56.44,8.2,69.59l8.19-13.15Z" fill="#2c8c2d"/><path d="M518.41,567l-24.08-71.67h12.91l16.53,57.28,16.39-57.28h13.06L528.85,567Z" transform="translate(-257.98 -437.09)" fill="#364742"/><path d="M622.27,563.39a82.741,82.741,0,0,1-26.11,4.16c-24.52,0-30.32-12.1-30.32-30V524.8c0-24.61,8.71-31.2,29-31.2s26.84,6.59,26.84,20.71v4.43c0,12.91-7,17.35-28,17.35H578.17v2.56c0,11,2.32,19.36,19.3,19.36a71.622,71.622,0,0,0,22.91-4Zm-12.18-48.95c0-9.28-5.08-11.83-15.24-11.83-11.31,0-16.68,3.36-16.68,18.55v6.59h14.51c13.2,0,17.41-2.69,17.41-10.49Z" transform="translate(-257.98 -437.09)" fill="#364742"/><path d="M640.69,566.21V505.3c0-4.3,13.78-11.7,30.61-11.7a43.852,43.852,0,0,1,6.53.4l-.87,9.42a29.008,29.008,0,0,0-4.06-.27c-10.59,0-20,4-20,6.18v56.88Z" transform="translate(-257.98 -437.09)" fill="#364742"/><path d="M689.15,517.8c0-12.91,1.45-24.2,21.9-24.2a50,50,0,0,1,22.34,5.51V466h12.33v91.6c0,4.71-12.62,9.95-28.87,9.95-26.11,0-27.7-11.56-27.7-24.74Zm12.33,24.48c0,8.6.43,16.27,15.52,16.27,9,0,16.39-2.56,16.39-4.71V507.32a38.22,38.22,0,0,0-18.71-4.71c-13.06,0-13.2,7.26-13.2,15.73Z" transform="translate(-257.98 -437.09)" fill="#364742"/><path d="M822,563.39a82.739,82.739,0,0,1-26.11,4.16c-24.51,0-30.32-12.1-30.32-30V524.8c0-24.61,8.71-31.2,29-31.2s26.83,6.59,26.83,20.71v4.43c0,12.91-7,17.35-28,17.35H777.92v2.56c0,11,2.32,19.36,19.3,19.36a71.74,71.74,0,0,0,22.92-4Zm-12.18-48.95c0-9.28-5.08-11.83-15.23-11.83-11.32,0-16.69,3.36-16.69,18.55v6.59h14.51c13.2,0,17.41-2.69,17.41-10.49Z" transform="translate(-257.98 -437.09)" fill="#364742"/><path d="M502.83,581.16a4.3,4.3,0,0,0-1.83-.43,4.249,4.249,0,0,0-2.14.56,4.06,4.06,0,0,0-1.52,1.53,4.39,4.39,0,0,0,0,4.29,4.13,4.13,0,0,0,3.66,2.1,4.571,4.571,0,0,0,1.8-.39,5.161,5.161,0,0,0,1.6-1.09l1.42,1.57a7.4,7.4,0,0,1-2.3,1.59,6.4,6.4,0,0,1-2.65.58,6.461,6.461,0,0,1-5.67-9.73,6.44,6.44,0,0,1,2.4-2.32,7,7,0,0,1,6-.3,6.39,6.39,0,0,1,2.2,1.49l-1.4,1.75a4.73,4.73,0,0,0-1.57-1.2Z" transform="translate(-257.98 -437.09)" fill="#364742"/><path d="M519.15,579.42a6.32,6.32,0,0,1,2.41,2.32,6.5,6.5,0,0,1,0,6.53,6.3,6.3,0,0,1-2.41,2.34,7.15,7.15,0,0,1-6.8,0,6.37,6.37,0,0,1-2.41-2.34,6.5,6.5,0,0,1,0-6.53,6.4,6.4,0,0,1,2.41-2.32A7.3,7.3,0,0,1,519.15,579.42Zm-5.49,1.88a4.18,4.18,0,0,0-2.14,3.7,4.27,4.27,0,0,0,.58,2.17,4.321,4.321,0,0,0,1.56,1.56,4.17,4.17,0,0,0,2.13.57,4.09,4.09,0,0,0,2.1-.57A4.28,4.28,0,0,0,520,585a4.21,4.21,0,0,0-2.09-3.7,4.09,4.09,0,0,0-2.1-.57,4.15,4.15,0,0,0-2.15.57Z" transform="translate(-257.98 -437.09)" fill="#364742"/><path d="M535.82,578.74h2.33v12.55h-2.28l-6.45-8.64v8.64h-2.35V578.74h2.28l6.47,8.66Z" transform="translate(-257.98 -437.09)" fill="#364742"/><path d="M542.35,578.74h10.23v2.14h-3.9v10.41h-2.42V580.88h-3.91Z" transform="translate(-257.98 -437.09)" fill="#364742"/><path d="M564.81,591.29l-1.11-2.65h-6.13l-1.11,2.65H554l5.51-12.55H562l5.44,12.55Zm-6.38-4.71h4.41l-2.19-5.27Z" transform="translate(-257.98 -437.09)" fill="#364742"/><path d="M580.17,579.58a2.71,2.71,0,0,1,1.16,2.3,2.75,2.75,0,0,1-2.19,2.78,3.24,3.24,0,0,1,2,1.07,3.19,3.19,0,0,1,.7,2.1,3,3,0,0,1-1.24,2.54,5.58,5.58,0,0,1-3.4.92h-5.74V578.74H577a5.27,5.27,0,0,1,3.17.84Zm-1.83,3.88a1.37,1.37,0,0,0,.53-1.15,1.28,1.28,0,0,0-.53-1.11,2.35,2.35,0,0,0-1.46-.38h-3v3h3a2.35,2.35,0,0,0,1.46-.36Zm.34,5.32a1.43,1.43,0,0,0,.64-1.25,1.37,1.37,0,0,0-.64-1.21,3,3,0,0,0-1.8-.42h-3v3.31h3a3,3,0,0,0,1.8-.43Z" transform="translate(-257.98 -437.09)" fill="#364742"/><path d="M586.65,578.74h2.41v12.55h-2.41Z" transform="translate(-257.98 -437.09)" fill="#364742"/><path d="M594.65,578.74h2.4v10.38h5.42v2.17h-7.82Z" transform="translate(-257.98 -437.09)" fill="#364742"/><path d="M606.86,578.74h2.41v12.55h-2.41Z" transform="translate(-257.98 -437.09)" fill="#364742"/><path d="M623.45,579.54a5.879,5.879,0,0,1,2.33,2.23,6.32,6.32,0,0,1,.84,3.25,6.14,6.14,0,0,1-.85,3.23,6,6,0,0,1-2.36,2.24,7.19,7.19,0,0,1-3.42.8h-5.13V578.74h5.22a7,7,0,0,1,3.37.8Zm-1.25,9.11a3.73,3.73,0,0,0,1.45-1.47,4.429,4.429,0,0,0,.52-2.14,4.34,4.34,0,0,0-.54-2.17,3.831,3.831,0,0,0-1.48-1.48,4.16,4.16,0,0,0-2.11-.53h-2.78v8.32h2.87a4.09,4.09,0,0,0,2.07-.53Z" transform="translate(-257.98 -437.09)" fill="#364742"/><path d="M640.2,591.29l-1.11-2.65H633l-1.11,2.65H629.4l5.5-12.55h2.5l5.43,12.55Zm-6.39-4.71h4.41L636,581.31Z" transform="translate(-257.98 -437.09)" fill="#364742"/><path d="M655.4,579.54a5.879,5.879,0,0,1,2.33,2.23,6.229,6.229,0,0,1,.85,3.25,6.141,6.141,0,0,1-.86,3.23,6,6,0,0,1-2.35,2.24,7.259,7.259,0,0,1-3.43.8h-5.13V578.74H652a7,7,0,0,1,3.4.8Zm-1.24,9.11a3.77,3.77,0,0,0,1.44-1.47,4.65,4.65,0,0,0,0-4.31,3.831,3.831,0,0,0-1.48-1.48,4.15,4.15,0,0,0-2.1-.53h-2.78v8.32h2.87a4.14,4.14,0,0,0,2.05-.53Z" transform="translate(-257.98 -437.09)" fill="#364742"/><path d="M663.19,578.74h9.19v2.1h-6.79v3.1h6.1V586h-6.1v3.16h7v2.09h-9.41Z" transform="translate(-257.98 -437.09)" fill="#364742"/><path d="M692,581.16a4.3,4.3,0,0,0-1.83-.43,4.249,4.249,0,0,0-2.14.56,4.061,4.061,0,0,0-1.52,1.53,4.39,4.39,0,0,0,0,4.29,4.13,4.13,0,0,0,3.66,2.1,4.57,4.57,0,0,0,1.8-.39,5.16,5.16,0,0,0,1.6-1.09L695,589.3a7.4,7.4,0,0,1-2.3,1.59,6.4,6.4,0,0,1-2.65.58,6.461,6.461,0,0,1-5.67-9.73,6.441,6.441,0,0,1,2.4-2.32,7,7,0,0,1,6-.3,6.39,6.39,0,0,1,2.2,1.49l-1.4,1.75A4.73,4.73,0,0,0,692,581.16Z" transform="translate(-257.98 -437.09)" fill="#364742"/><path d="M708.29,579.42a6.32,6.32,0,0,1,2.41,2.32,6.5,6.5,0,0,1,0,6.53,6.3,6.3,0,0,1-2.41,2.34,7.13,7.13,0,0,1-6.79,0,6.368,6.368,0,0,1,0-11.19A7.28,7.28,0,0,1,708.29,579.42Zm-5.49,1.88a4.285,4.285,0,0,0,2.13,8,4.09,4.09,0,0,0,2.1-.57,4.37,4.37,0,0,0,1.53-5.89A4.191,4.191,0,0,0,707,581.3a4.09,4.09,0,0,0-2.1-.57,4.17,4.17,0,0,0-2.1.57Z" transform="translate(-257.98 -437.09)" fill="#364742"/><path d="M725,578.74h2.33v12.55H725l-6.45-8.64v8.64H716.2V578.74h2.28L725,587.4Z" transform="translate(-257.98 -437.09)" fill="#364742"/><path d="M738.79,581.05a6.111,6.111,0,0,0-1.78-.32,2.53,2.53,0,0,0-1.36.32,1,1,0,0,0-.5.9,1.18,1.18,0,0,0,.34.87,2.73,2.73,0,0,0,.88.57,14.545,14.545,0,0,0,1.45.5,15.371,15.371,0,0,1,2.08.75,3.75,3.75,0,0,1,1.4,1.11,3.09,3.09,0,0,1,.57,1.94,3.35,3.35,0,0,1-.62,2,3.86,3.86,0,0,1-1.7,1.3,6.47,6.47,0,0,1-2.49.45,8.23,8.23,0,0,1-5.3-2l1-2a7.321,7.321,0,0,0,2.13,1.39,5.79,5.79,0,0,0,2.21.5,2.8,2.8,0,0,0,1.58-.39,1.26,1.26,0,0,0,.22-1.93,2.441,2.441,0,0,0-.89-.57c-.35-.14-.85-.3-1.47-.48a17.009,17.009,0,0,1-2.08-.74,3.77,3.77,0,0,1-1.38-1.08,3,3,0,0,1-.57-1.91,3.18,3.18,0,0,1,.58-1.91,3.74,3.74,0,0,1,1.65-1.27,6.289,6.289,0,0,1,2.47-.45,8.519,8.519,0,0,1,4.53,1.33l-1,2.1a9.144,9.144,0,0,0-1.95-.98Z" transform="translate(-257.98 -437.09)" fill="#364742"/><path d="M749.67,588.46a3.42,3.42,0,0,0,4.49,0,3.23,3.23,0,0,0,.82-2.33v-7.39h2.4v7.39a5.839,5.839,0,0,1-.66,2.84,4.539,4.539,0,0,1-1.9,1.86,6.13,6.13,0,0,1-2.89.64,6.271,6.271,0,0,1-2.93-.64,4.45,4.45,0,0,1-1.91-1.86,5.73,5.73,0,0,1-.67-2.84v-7.39h2.41v7.39A3.15,3.15,0,0,0,749.67,588.46Z" transform="translate(-257.98 -437.09)" fill="#364742"/><path d="M762.72,578.74h2.41v10.38h5.41v2.17h-7.82Z" transform="translate(-257.98 -437.09)" fill="#364742"/><path d="M773.53,578.74h10.24v2.14h-3.91v10.41h-2.42V580.88h-3.91Z" transform="translate(-257.98 -437.09)" fill="#364742"/><path d="M788,578.74h2.4v12.55H788Z" transform="translate(-257.98 -437.09)" fill="#364742"/><path d="M794.48,578.74h2.58l3.7,9.88,3.72-9.88H807l-5,12.55h-2.49Z" transform="translate(-257.98 -437.09)" fill="#364742"/><path d="M819.44,591.29l-1.11-2.65H812.2l-1.12,2.65h-2.49l5.51-12.55h2.49L822,591.29Zm-6.38-4.71h4.41l-2.19-5.27Z" transform="translate(-257.98 -437.09)" fill="#364742"/></svg>