<svg xmlns="http://www.w3.org/2000/svg" width="564.042" height="205.818" viewBox="0 0 564.042 205.818"><g transform="translate(-257.979 -437.091)"><rect width="4.41" height="205.818" transform="translate(447.812 437.091)" fill="#2c8c2d"/><path d="M329.6,484.954,291.12,546.729l16.088,25.824,54.571-87.6Z" fill="#98bf00"/><path d="M377.229,474.5h32.119L327.735,605.5l-16.06-25.779Z" fill="#98bf00"/><path d="M327.184,540.487l-19.976,32.067L291.12,546.729l36.064-57.891Z" fill="#2c8c2d"/><path d="M327.184,604.62l-15.509-24.9,15.509-24.9Z" fill="#2c8c2d"/><path d="M283.3,493.53l-12.663,20.326,16.011,25.7,28.674-46.028Z" fill="#2c8c2d"/><path d="M257.979,493.53l8.195,13.155,8.2-13.155Z" fill="#2c8c2d"/><path d="M518.405,567.016l-24.08-71.668h12.91l16.537,57.281,16.392-57.281h13.055L528.85,567.016Z" fill="#fff"/><path d="M622.27,563.386a82.526,82.526,0,0,1-26.111,4.169c-24.515,0-30.316-12.1-30.316-29.986V524.795c0-24.607,8.7-31.2,29.012-31.2s26.835,6.589,26.835,20.708v4.437c0,12.909-6.963,17.346-28,17.346H578.172v2.555c0,11.026,2.321,19.363,19.293,19.363a71.752,71.752,0,0,0,22.92-4.035Zm-12.184-48.945c0-9.277-5.078-11.832-15.231-11.832-11.316,0-16.683,3.361-16.683,18.556v6.588h14.507c13.2,0,17.407-2.689,17.407-10.488Z" fill="#fff"/><path d="M640.693,566.21V505.3c0-4.3,13.781-11.7,30.608-11.7a43.894,43.894,0,0,1,6.528.4l-.87,9.412a29.952,29.952,0,0,0-4.062-.268c-10.59,0-20.018,4.034-20.018,6.185V566.21Z" fill="#fff"/><path d="M689.146,517.8c0-12.908,1.45-24.2,21.9-24.2a49.89,49.89,0,0,1,22.339,5.513V466.035h12.33V557.6c0,4.707-12.621,9.951-28.867,9.951-26.111,0-27.706-11.565-27.706-24.742Zm12.329,24.472c0,8.606.435,16.27,15.522,16.27,8.993,0,16.392-2.555,16.392-4.706V507.315a38.3,38.3,0,0,0-18.713-4.706c-13.055,0-13.2,7.26-13.2,15.732Z" fill="#fff"/><path d="M822.021,563.386a82.519,82.519,0,0,1-26.11,4.169c-24.515,0-30.317-12.1-30.317-29.986V524.795c0-24.607,8.7-31.2,29.012-31.2s26.835,6.589,26.835,20.708v4.437c0,12.909-6.963,17.346-28,17.346H777.923v2.555c0,11.026,2.321,19.363,19.294,19.363a71.745,71.745,0,0,0,22.919-4.035Zm-12.184-48.945c0-9.277-5.078-11.832-15.231-11.832-11.316,0-16.683,3.361-16.683,18.556v6.588H792.43c13.2,0,17.407-2.689,17.407-10.488Z" fill="#fff"/><path d="M502.834,581.162a4.248,4.248,0,0,0-1.839-.43,4.2,4.2,0,0,0-2.133.556,4.038,4.038,0,0,0-1.525,1.533,4.406,4.406,0,0,0,0,4.285,4.1,4.1,0,0,0,1.525,1.543,4.149,4.149,0,0,0,2.133.564,4.482,4.482,0,0,0,1.8-.394,5.178,5.178,0,0,0,1.605-1.093l1.416,1.577a7.387,7.387,0,0,1-2.294,1.587,6.462,6.462,0,0,1-2.654.583,6.561,6.561,0,0,1-3.317-.861A6.362,6.362,0,0,1,494.325,585a6.3,6.3,0,0,1,3.272-5.576,6.947,6.947,0,0,1,6-.3,6.494,6.494,0,0,1,2.207,1.488l-1.4,1.758A4.744,4.744,0,0,0,502.834,581.162Z" fill="#fff"/><path d="M519.151,579.423a6.42,6.42,0,0,1,2.412,8.849,6.393,6.393,0,0,1-2.412,2.34,7.138,7.138,0,0,1-6.8,0,6.4,6.4,0,0,1-2.411-2.34,6.355,6.355,0,0,1,2.411-8.849,7.272,7.272,0,0,1,6.8,0Zm-5.5,1.874a4.295,4.295,0,0,0-1.551,5.872,4.321,4.321,0,0,0,1.56,1.56,4.115,4.115,0,0,0,2.125.574,4.04,4.04,0,0,0,2.1-.574,4.211,4.211,0,0,0,1.533-1.56,4.291,4.291,0,0,0,.564-2.17,4.246,4.246,0,0,0-.564-2.16,4.177,4.177,0,0,0-1.533-1.542,4.089,4.089,0,0,0-2.1-.565A4.216,4.216,0,0,0,513.655,581.3Z" fill="#fff"/><path d="M535.817,578.742h2.332v12.552h-2.277l-6.455-8.643v8.643h-2.35V578.742h2.278l6.472,8.661Z" fill="#fff"/><path d="M542.346,578.742h10.239v2.133h-3.909v10.419h-2.421V580.875h-3.909Z" fill="#fff"/><path d="M564.813,591.294,563.7,588.64h-6.133l-1.112,2.654h-2.492l5.5-12.552h2.492l5.433,12.552Zm-6.384-4.716h4.412l-2.187-5.272Z" fill="#fff"/><path d="M580.172,579.584a2.69,2.69,0,0,1,1.157,2.3,2.746,2.746,0,0,1-2.187,2.779,3.235,3.235,0,0,1,1.963,1.076,3.152,3.152,0,0,1,.708,2.1,2.986,2.986,0,0,1-1.246,2.537,5.589,5.589,0,0,1-3.4.924h-5.738V578.742h5.577A5.279,5.279,0,0,1,580.172,579.584Zm-1.828,3.874a1.376,1.376,0,0,0,.529-1.148,1.308,1.308,0,0,0-.529-1.112,2.331,2.331,0,0,0-1.462-.376h-3.048v3.048h3.048A2.327,2.327,0,0,0,578.344,583.458Zm.331,5.325a1.443,1.443,0,0,0,.646-1.255,1.388,1.388,0,0,0-.646-1.21,3.066,3.066,0,0,0-1.793-.422h-3.048v3.317h3.048A3.012,3.012,0,0,0,578.675,588.783Z" fill="#fff"/><path d="M586.655,578.742h2.4v12.552h-2.4Z" fill="#fff"/><path d="M594.651,578.742h2.4v10.382h5.416v2.17h-7.819Z" fill="#fff"/><path d="M606.863,578.742h2.4v12.552h-2.4Z" fill="#fff"/><path d="M623.45,579.539a5.887,5.887,0,0,1,2.331,2.233,6.3,6.3,0,0,1,.843,3.246,6.193,6.193,0,0,1-.852,3.236,5.971,5.971,0,0,1-2.359,2.233,7.131,7.131,0,0,1-3.424.807h-5.128V578.742h5.218A7.034,7.034,0,0,1,623.45,579.539Zm-1.247,9.11a3.752,3.752,0,0,0,1.444-1.47,4.642,4.642,0,0,0-.018-4.3,3.818,3.818,0,0,0-1.48-1.489,4.23,4.23,0,0,0-2.106-.528h-2.78v8.32h2.869A4.083,4.083,0,0,0,622.2,588.649Z" fill="#fff"/><path d="M640.2,591.294l-1.111-2.654h-6.133l-1.112,2.654h-2.492l5.505-12.552h2.493l5.432,12.552Zm-6.383-4.716h4.411l-2.187-5.272Z" fill="#fff"/><path d="M655.4,579.539a5.887,5.887,0,0,1,2.331,2.233,6.3,6.3,0,0,1,.843,3.246,6.184,6.184,0,0,1-.852,3.236,5.975,5.975,0,0,1-2.358,2.233,7.137,7.137,0,0,1-3.424.807h-5.129V578.742h5.218A7.031,7.031,0,0,1,655.4,579.539Zm-1.246,9.11a3.749,3.749,0,0,0,1.443-1.47,4.642,4.642,0,0,0-.018-4.3,3.811,3.811,0,0,0-1.48-1.489,4.227,4.227,0,0,0-2.106-.528h-2.779v8.32h2.869A4.089,4.089,0,0,0,654.157,588.649Z" fill="#fff"/><path d="M663.186,578.742h9.2v2.1h-6.8v3.1h6.1v2.1h-6.1V589.2H672.6v2.1h-9.414Z" fill="#fff"/><path d="M691.974,581.162a4.264,4.264,0,0,0-3.972.126,4.028,4.028,0,0,0-1.524,1.533,4.406,4.406,0,0,0,0,4.285A4.09,4.09,0,0,0,688,588.649a4.155,4.155,0,0,0,2.134.564,4.482,4.482,0,0,0,1.8-.394,5.166,5.166,0,0,0,1.605-1.093l1.417,1.577a7.408,7.408,0,0,1-2.3,1.587,6.458,6.458,0,0,1-2.653.583,6.562,6.562,0,0,1-3.317-.861,6.311,6.311,0,0,1-2.368-2.34,6.393,6.393,0,0,1-.86-3.273,6.24,6.24,0,0,1,.878-3.263,6.317,6.317,0,0,1,2.394-2.313,6.947,6.947,0,0,1,6-.3,6.48,6.48,0,0,1,2.206,1.488l-1.4,1.758A4.748,4.748,0,0,0,691.974,581.162Z" fill="#fff"/><path d="M708.292,579.423a6.42,6.42,0,0,1,2.412,8.849,6.386,6.386,0,0,1-2.412,2.34,7.136,7.136,0,0,1-6.8,0,6.4,6.4,0,0,1-2.412-2.34,6.354,6.354,0,0,1,2.412-8.849,7.27,7.27,0,0,1,6.8,0ZM702.8,581.3a4.294,4.294,0,0,0-1.552,5.872,4.336,4.336,0,0,0,1.56,1.56,4.12,4.12,0,0,0,2.125.574,4.038,4.038,0,0,0,2.1-.574,4.218,4.218,0,0,0,1.533-1.56,4.281,4.281,0,0,0,.565-2.17,4.237,4.237,0,0,0-.565-2.16,4.184,4.184,0,0,0-1.533-1.542,4.087,4.087,0,0,0-2.1-.565A4.21,4.21,0,0,0,702.8,581.3Z" fill="#fff"/><path d="M724.959,578.742h2.331v12.552h-2.276l-6.456-8.643v8.643h-2.349V578.742h2.277l6.473,8.661Z" fill="#fff"/><path d="M738.794,581.054a5.992,5.992,0,0,0-1.784-.322,2.5,2.5,0,0,0-1.363.322,1.011,1.011,0,0,0-.5.9,1.177,1.177,0,0,0,.35.87,2.725,2.725,0,0,0,.878.574,13.913,13.913,0,0,0,1.444.493,15.746,15.746,0,0,1,2.088.753,3.732,3.732,0,0,1,1.39,1.112,3.063,3.063,0,0,1,.574,1.936,3.308,3.308,0,0,1-.619,2,3.871,3.871,0,0,1-1.7,1.3,6.446,6.446,0,0,1-2.483.448,7.81,7.81,0,0,1-2.869-.547,8.163,8.163,0,0,1-2.439-1.461l1-2.045a7.35,7.35,0,0,0,2.134,1.381,5.674,5.674,0,0,0,2.206.5,2.8,2.8,0,0,0,1.578-.385,1.27,1.27,0,0,0,.225-1.937,2.6,2.6,0,0,0-.888-.564c-.358-.144-.85-.306-1.471-.485a17.467,17.467,0,0,1-2.08-.735,3.608,3.608,0,0,1-1.38-1.085,2.988,2.988,0,0,1-.574-1.909,3.2,3.2,0,0,1,.582-1.91,3.761,3.761,0,0,1,1.65-1.265,6.337,6.337,0,0,1,2.466-.448,8.342,8.342,0,0,1,2.412.359,8.155,8.155,0,0,1,2.124.968l-.968,2.1A9.123,9.123,0,0,0,738.794,581.054Z" fill="#fff"/><path d="M749.668,588.46a3.055,3.055,0,0,0,2.26.843,2.96,2.96,0,0,0,2.232-.843,3.2,3.2,0,0,0,.816-2.331v-7.387h2.4v7.387a5.829,5.829,0,0,1-.663,2.843,4.5,4.5,0,0,1-1.892,1.855,6.138,6.138,0,0,1-2.9.646,6.279,6.279,0,0,1-2.931-.646,4.455,4.455,0,0,1-1.91-1.855,5.83,5.83,0,0,1-.664-2.843v-7.387h2.4v7.387A3.151,3.151,0,0,0,749.668,588.46Z" fill="#fff"/><path d="M762.723,578.742h2.4v10.382h5.416v2.17h-7.819Z" fill="#fff"/><path d="M773.534,578.742h10.24v2.133h-3.909v10.419h-2.421V580.875h-3.91Z" fill="#fff"/><path d="M787.987,578.742h2.4v12.552h-2.4Z" fill="#fff"/><path d="M794.479,578.742h2.582l3.694,9.88,3.729-9.88h2.475l-5.021,12.552h-2.493Z" fill="#fff"/><path d="M819.439,591.294l-1.111-2.654H812.2l-1.112,2.654h-2.492l5.505-12.552h2.492l5.433,12.552Zm-6.384-4.716h4.412l-2.187-5.272Z" fill="#fff"/></g></svg>